<svg xmlns="http://www.w3.org/2000/svg" version="1.1" xmlns:xlink="http://www.w3.org/1999/xlink" width="1000" height="1000"><g clip-path="url(#SvgjsClipPath1364)"><rect width="1000" height="1000" fill="#000000"></rect><g transform="matrix(1.5909090909090908,0,0,1.5909090909090908,201.7045454545455,150)"><svg xmlns="http://www.w3.org/2000/svg" version="1.1" xmlns:xlink="http://www.w3.org/1999/xlink" width="375" height="440"><svg width="375" height="440" viewBox="0 0 375 440" fill="none" xmlns="http://www.w3.org/2000/svg">
<path d="M142.707 177.717C144.42 164.777 156.519 167.359 166.61 167.453C168.413 167.453 170.217 167.453 172.076 167.453C175.889 167.458 179.703 167.476 183.517 167.505C189.368 167.547 195.218 167.546 201.069 167.539C204.77 167.55 208.471 167.562 212.172 167.578C213.929 167.578 215.687 167.579 217.497 167.579C232.689 167.728 235.442 169.493 235.465 184.131C235.471 186.29 235.477 188.449 235.483 190.674C235.485 194.251 235.484 194.251 235.486 197.9C235.493 201.648 235.494 201.649 235.501 205.473C235.516 213.776 235.522 222.079 235.528 230.383C235.534 236.129 235.54 241.874 235.545 247.62C235.556 259.68 235.561 271.741 235.565 283.801C235.57 299.289 235.595 314.777 235.623 330.266C235.642 342.137 235.647 354.008 235.649 365.879C235.652 371.591 235.66 377.303 235.673 383.015C235.69 390.988 235.688 398.962 235.681 406.936C235.69 409.316 235.7 411.696 235.709 414.148C235.704 416.313 235.699 418.478 235.693 420.709C235.695 423.539 235.694 423.54 235.697 426.427C234.23 444.648 208.244 438.379 194.862 438.362C189.478 438.359 184.095 438.383 178.711 438.408C175.294 438.41 171.875 438.411 168.457 438.41C165.342 438.413 162.227 438.416 159.017 438.419C145.085 437.745 143.208 435.692 143.171 422.97C143.163 420.787 143.154 418.603 143.145 416.354C143.141 413.937 143.137 411.521 143.132 409.032C143.124 406.504 143.116 403.976 143.108 401.371C143.083 392.965 143.066 384.559 143.051 376.152C143.046 373.292 143.041 370.431 143.036 367.484C143.009 352.352 142.989 337.219 142.975 322.087C142.958 306.409 142.914 290.731 142.863 275.054C142.829 263.04 142.818 251.025 142.812 239.011C142.805 233.229 142.79 227.447 142.766 221.665C142.735 213.593 142.734 205.522 142.742 197.45C142.725 195.04 142.709 192.63 142.692 190.146C142.7 187.955 142.709 185.763 142.717 183.505C142.714 181.595 142.711 179.685 142.707 177.717ZM282.074 113.588C282.732 99.0884 293.101 102.871 304.789 102.844C307.571 102.835 307.572 102.835 310.41 102.826C314.34 102.817 318.27 102.81 322.2 102.807C328.233 102.797 334.266 102.766 340.299 102.734C344.108 102.728 347.918 102.723 351.727 102.719C354.45 102.7 354.451 102.701 357.229 102.682C374.445 102.712 374.447 106.632 374.458 122.643C374.465 126.679 374.466 126.679 374.472 130.797C374.471 135.252 374.471 135.252 374.47 139.797C374.473 142.911 374.477 146.024 374.481 149.232C374.489 157.79 374.492 166.348 374.493 174.905C374.494 182.04 374.497 189.175 374.5 196.311C374.509 213.138 374.511 229.966 374.51 246.793C374.51 264.174 374.521 281.555 374.537 298.936C374.55 313.84 374.555 328.744 374.554 343.648C374.554 352.558 374.556 361.468 374.567 370.378C374.578 380.308 374.574 390.238 374.568 400.168C374.573 403.136 374.58 406.104 374.585 409.162C374.581 411.856 374.577 414.549 374.573 417.324C374.573 419.674 374.573 422.024 374.574 424.445C373.649 445.255 349.852 438.233 334.365 438.232C329.045 438.235 323.724 438.253 318.405 438.271C315.028 438.274 311.651 438.276 308.274 438.277C305.194 438.281 302.114 438.286 298.941 438.29C282.913 437.779 282.075 434.151 282.071 419.293C282.065 416.567 282.06 413.841 282.054 411.032C282.06 406.519 282.06 406.519 282.066 401.914C282.062 398.76 282.06 395.605 282.056 392.355C282.047 383.686 282.05 375.017 282.056 366.348C282.061 357.29 282.057 348.233 282.054 339.176C282.05 323.963 282.054 308.75 282.064 293.537C282.075 275.93 282.072 258.324 282.061 240.717C282.052 225.621 282.05 210.524 282.055 195.428C282.058 186.402 282.059 177.377 282.052 168.352C282.045 158.294 282.055 148.237 282.066 138.18C282.062 135.171 282.058 132.162 282.054 129.062C282.06 126.336 282.065 123.61 282.071 120.802C282.071 118.421 282.073 116.04 282.074 113.588ZM78.269 224.682C97.9566 224.717 96.4499 230.661 96.4545 248.676C96.4571 251.257 96.4567 251.257 96.4594 253.891C96.4638 259.607 96.4608 265.323 96.4574 271.039C96.4581 275.016 96.4591 278.994 96.4604 282.971C96.4619 291.329 96.4602 299.687 96.4555 308.045C96.4498 318.71 96.4534 329.375 96.4594 340.04C96.463 348.268 96.461 356.495 96.4584 364.723C96.4578 368.651 96.459 372.579 96.4613 376.508C96.49 438.243 96.4899 438.243 55.9369 438.287C50.5447 438.297 45.1524 438.328 39.7602 438.359C36.3378 438.366 32.915 438.371 29.4926 438.375L20.0326 438.403C1.18565 437.532 4.17629 428.97 4.1801 413.227C4.17674 411.262 4.17282 409.298 4.16936 407.274C4.15982 400.752 4.15774 394.229 4.15666 387.707C4.15345 383.192 4.15041 378.677 4.1469 374.162C4.1409 364.687 4.13947 355.211 4.14006 345.736C4.14016 333.568 4.12603 321.4 4.10881 309.232C4.09772 299.905 4.09559 290.577 4.09612 281.25C4.09493 276.763 4.09112 272.275 4.08342 267.788C4.07367 261.524 4.07639 255.26 4.08244 248.996C4.07682 247.126 4.07065 245.256 4.06487 243.33C4.11428 223.32 8.26036 224.887 26.5356 224.844C28.3655 224.838 30.1961 224.832 32.0815 224.826C35.96 224.817 39.8386 224.81 43.7172 224.807C49.6671 224.797 55.617 224.766 61.5668 224.734C65.3271 224.728 69.0878 224.723 72.8481 224.719C74.6367 224.706 76.4262 224.694 78.269 224.682ZM323.872 10.4844C301.673 4.73128 325.732 -3.12869 339.887 1.29688L347.641 3.6875C368.382 11.0094 364.001 22.6479 356.637 40.2969L352.875 49.4375C348.243 59.3652 336.325 69.5344 336.325 52.0469C338.344 47.7043 340.434 43.3935 342.575 39.1094C350.308 20.947 336.819 30.5838 326.325 36.0469C322.149 37.9277 317.961 39.7811 313.762 41.6094L306.75 44.75C299.011 48.1862 291.237 51.533 283.45 54.8594C268.114 61.4106 252.808 68.029 237.512 74.6719C235.217 75.6684 232.922 76.6656 230.558 77.6924C226.126 79.6176 221.693 81.5431 217.26 83.4688C201.108 90.4858 184.955 97.5003 168.762 104.422C152.616 111.331 136.51 118.335 120.401 125.331C104.137 132.394 87.8667 139.44 71.5903 146.473C63.6025 149.927 55.6194 153.393 47.6371 156.859L40.4067 159.98C35.5623 162.078 30.7265 164.196 25.8988 166.332L18.8246 169.422L12.5434 172.195C2.4582 175.773 -1.17507 173.545 0.324631 163.047C10.04 157.422 20.4966 153.301 30.8246 148.922C33.9302 147.601 37.0359 146.279 40.141 144.957L49.3246 141.047C54.4725 138.823 59.6187 136.594 64.7621 134.359C74.2728 130.232 83.7928 126.126 93.3246 122.047C105.325 116.911 117.306 111.73 129.282 106.535C148.76 98.0873 168.239 89.6404 187.762 81.2969C206.209 73.4034 224.597 65.3728 242.995 57.3662C260.688 49.668 278.397 42.0107 296.137 34.4219L304.848 30.6328C310.448 28.2638 316.101 26.0156 321.801 23.8984C336.69 18.208 343.435 15.4123 323.872 10.4844Z" fill="#FEFEFE"></path>
</svg></svg></g></g><defs><clipPath id="SvgjsClipPath1364"><rect width="1000" height="1000" x="0" y="0" rx="200" ry="200"></rect></clipPath></defs></svg>